STARTFONT 2.1
FONT -Adobe-ITC Souvenir-Light-R-Normal--34-240-100-100-P-174-ISO8859-1
SIZE 24 100 100
FONTBOUNDINGBOX 41 37 -5 -7

STARTPROPERTIES 30
FOUNDRY "Adobe"
FAMILY_NAME "ITC Souvenir"
WEIGHT_NAME "Light"
SLANT "R"
SETWIDTH_NAME "Normal"
ADD_STYLE_NAME ""
PIXEL_SIZE 34
POINT_SIZE 240
RESOLUTION_X 100
RESOLUTION_Y 100
SPACING "P"
AVERAGE_WIDTH 174
CHARSET_REGISTRY "ISO8859"
CHARSET_ENCODING "1"
CAP_HEIGHT 24
X_HEIGHT 15
FACE_NAME "ITC Souvenir Light"
COPYRIGHT "Copyright (c) 1984, 1987 Adobe Systems Incorporated. All Rights Reserved. Copyright (c) 1988, 1991 Digital Equipment Corporation. All Rights Reserved."
NOTICE "ITC Souvenir is a registered trademark of International Typeface Corporation.  "
_DEC_DEVICE_FONTNAMES "PS=Souvenir-Light"
_DEC_PRODUCTINFO "DECwindows Fonts V2.2, 07-Nov-1991"
RELATIVE_SETWIDTH 50
RELATIVE_WEIGHT 30
CHARSET_COLLECTIONS "ASCII ISO8859-1 ADOBE-STANDARD"
FULL_NAME "ITC Souvenir Light"
WEIGHT 10
QUAD_WIDTH 19
DEFAULT_CHAR 32
FONT_DESCENT 7
FONT_ASCENT 27
ENDPROPERTIES

CHARS 191

STARTCHAR space
ENCODING 32
SWIDTH 300 0
DWIDTH 10 0
BBX 1 1 0 0
BITMAP
00
ENDCHAR

STARTCHAR exclam
ENCODING 33
SWIDTH 300 0
DWIDTH 10 0
BBX 4 25 2 -1
BITMAP
70
70
70
70
70
70
70
70
70
70
70
70
20
20
20
20
20
20
00
00
00
60
F0
F0
60
ENDCHAR

STARTCHAR quotedbl
ENCODING 34
SWIDTH 360 0
DWIDTH 12 0
BBX 9 8 1 16
BITMAP
4100
E380
E380
E380
E380
4100
4100
4100
ENDCHAR

STARTCHAR numbersign
ENCODING 35
SWIDTH 640 0
DWIDTH 19 0
BBX 17 19 1 3
BITMAP
018600
018600
010400
030C00
030C00
3FFF80
3FFF80
061800
061800
041000
0C3000
0C3000
FFFE00
FFFE00
186000
186000
104000
30C000
30C000
ENDCHAR

STARTCHAR dollar
ENCODING 36
SWIDTH 600 0
DWIDTH 19 0
BBX 13 31 3 -4
BITMAP
0200
0200
0200
0F80
3FE0
7270
6230
C220
C200
C200
E200
7A00
7E00
3F00
0FC0
03E0
03F0
02F0
0238
0238
0218
C218
C218
E230
7270
3FE0
1F80
0200
0200
0200
0200
ENDCHAR

STARTCHAR percent
ENCODING 37
SWIDTH 820 0
DWIDTH 26 0
BBX 24 24 0 0
BITMAP
1F0040
3180C0
60C080
60C180
E0E100
E0E300
E0E200
E0E600
E0E400
E0EC00
60C8F8
60D98C
319306
1F3306
002707
006707
004707
00C707
008707
018707
010306
030306
02018C
0600F8
ENDCHAR

STARTCHAR ampersand
ENCODING 38
SWIDTH 800 0
DWIDTH 26 0
BBX 23 24 1 0
BITMAP
03E000
0FF000
1C3800
181800
301800
301800
383000
183000
1CE000
0FC000
0701F8
1F80F0
3BC060
71E060
60F0C0
E078C0
C03D80
C01F00
E00F00
E00780
700FC0
7C39E2
3FF0FC
0FC038
ENDCHAR

STARTCHAR quoteright
ENCODING 39
SWIDTH 280 0
DWIDTH 9 0
BBX 4 8 3 16
BITMAP
60
F0
F0
70
10
20
20
40
ENDCHAR

STARTCHAR parenleft
ENCODING 40
SWIDTH 240 0
DWIDTH 8 0
BBX 5 29 1 -5
BITMAP
08
18
18
30
30
20
60
60
60
E0
C0
C0
C0
C0
C0
C0
C0
C0
C0
E0
60
60
60
60
30
30
18
18
08
ENDCHAR

STARTCHAR parenright
ENCODING 41
SWIDTH 240 0
DWIDTH 8 0
BBX 5 29 1 -5
BITMAP
80
C0
C0
60
60
30
30
30
30
38
18
18
18
18
18
18
18
18
18
38
30
30
30
20
60
60
C0
C0
80
ENDCHAR

STARTCHAR asterisk
ENCODING 42
SWIDTH 360 0
DWIDTH 12 0
BBX 9 10 1 14
BITMAP
1C00
1C00
C980
EB80
1C00
1C00
EB80
C980
1C00
1C00
ENDCHAR

STARTCHAR plus
ENCODING 43
SWIDTH 660 0
DWIDTH 21 0
BBX 16 16 2 0
BITMAP
0180
0180
0180
0180
0180
0180
0180
FFFF
FFFF
0180
0180
0180
0180
0180
0180
0180
ENDCHAR

STARTCHAR comma
ENCODING 44
SWIDTH 300 0
DWIDTH 9 0
BBX 4 8 3 -5
BITMAP
60
F0
F0
70
10
20
20
40
ENDCHAR

STARTCHAR minus
ENCODING 45
SWIDTH 660 0
DWIDTH 21 0
BBX 16 2 2 7
BITMAP
FFFF
FFFF
ENDCHAR

STARTCHAR period
ENCODING 46
SWIDTH 300 0
DWIDTH 9 0
BBX 4 4 3 -1
BITMAP
60
F0
F0
60
ENDCHAR

STARTCHAR slash
ENCODING 47
SWIDTH 520 0
DWIDTH 17 0
BBX 16 27 0 -3
BITMAP
0003
0003
0006
0004
000C
0018
0018
0030
0030
0060
0060
00C0
00C0
0180
0300
0300
0600
0600
0C00
0C00
1800
1800
3000
2000
6000
C000
C000
ENDCHAR

STARTCHAR zero
ENCODING 48
SWIDTH 600 0
DWIDTH 19 0
BBX 15 24 2 0
BITMAP
0380
0FE0
1C70
3838
3018
701C
701C
E00E
E00E
E00E
E00E
E00E
E00E
E00E
E00E
E00E
E00E
701C
701C
3018
3838
1C70
0FE0
07C0
ENDCHAR

STARTCHAR one
ENCODING 49
SWIDTH 600 0
DWIDTH 19 0
BBX 11 24 4 0
BITMAP
0600
0E00
3E00
FE00
0E00
0E00
0E00
0E00
0E00
0E00
0E00
0E00
0E00
0E00
0E00
0E00
0E00
0E00
0E00
0E00
0E00
0E00
3F80
FFE0
ENDCHAR

STARTCHAR two
ENCODING 50
SWIDTH 600 0
DWIDTH 19 0
BBX 15 24 2 0
BITMAP
07C0
1FF0
3C78
701C
601E
E00E
E00E
700E
601C
001C
0038
0070
00E0
01C0
0380
0700
0E00
1C00
3800
7002
6006
FFFE
FFFC
FFFC
ENDCHAR

STARTCHAR three
ENCODING 51
SWIDTH 600 0
DWIDTH 19 0
BBX 16 24 1 0
BITMAP
03E0
0FF8
3C3C
381E
700E
700E
200E
000E
001C
0038
0070
07E0
07F8
003C
000E
000F
0007
0007
C007
E00F
E00E
783C
3FF8
0FE0
ENDCHAR

STARTCHAR four
ENCODING 52
SWIDTH 600 0
DWIDTH 19 0
BBX 17 24 1 0
BITMAP
003800
007800
00F800
01B800
033800
033800
063800
0C3800
0C3800
183800
303800
303800
603800
603800
C03800
C03800
FFFF80
FFFF80
003800
003800
003800
003800
007C00
00FE00
ENDCHAR

STARTCHAR five
ENCODING 53
SWIDTH 600 0
DWIDTH 19 0
BBX 16 25 1 0
BITMAP
300C
3FFC
3FF8
3FE0
3000
3000
3000
3000
3000
3000
33F0
3FF8
3C3C
300E
000E
0007
0007
0007
0007
E00E
E00E
701C
7878
3FF0
0FC0
ENDCHAR

STARTCHAR six
ENCODING 54
SWIDTH 600 0
DWIDTH 19 0
BBX 16 24 1 0
BITMAP
007C
01F0
0780
0E00
1C00
3800
3800
7000
7000
E1E0
E7F8
EE3C
F80E
F00E
E007
E007
E007
E007
7007
700E
380E
1C1C
0FF8
03E0
ENDCHAR

STARTCHAR seven
ENCODING 55
SWIDTH 600 0
DWIDTH 19 0
BBX 14 25 2 -1
BITMAP
FFFC
FFFC
FFFC
C018
8018
0038
0030
0030
0070
0060
00E0
00C0
00C0
01C0
0180
0180
0380
0300
0700
0700
0600
0E00
0E00
1C00
1C00
ENDCHAR

STARTCHAR eight
ENCODING 56
SWIDTH 600 0
DWIDTH 19 0
BBX 16 24 1 0
BITMAP
03E0
0FF8
1C1C
380E
3006
3006
380E
380C
1C18
1F30
0FE0
03E0
07F0
1CFC
383E
700E
600F
E007
E007
6007
700E
3C3E
1FF8
07E0
ENDCHAR

STARTCHAR nine
ENCODING 57
SWIDTH 600 0
DWIDTH 19 0
BBX 15 24 2 0
BITMAP
07C0
1FF0
3838
7018
701C
E00C
E00E
E00E
E00E
E00E
700E
701E
387E
1FEE
0F8E
000E
001C
001C
0038
0070
00E0
03C0
0F00
3C00
ENDCHAR

STARTCHAR colon
ENCODING 58
SWIDTH 300 0
DWIDTH 9 0
BBX 4 13 3 -1
BITMAP
60
F0
F0
60
00
00
00
00
00
60
F0
F0
60
ENDCHAR

STARTCHAR semicolon
ENCODING 59
SWIDTH 300 0
DWIDTH 9 0
BBX 4 17 3 -5
BITMAP
60
F0
F0
60
00
00
00
00
00
60
F0
F0
70
10
20
20
40
ENDCHAR

STARTCHAR less
ENCODING 60
SWIDTH 660 0
DWIDTH 21 0
BBX 17 18 2 -1
BITMAP
000180
000780
001E00
007800
01E000
078000
1E0000
780000
E00000
E00000
780000
1E0000
078000
01E000
007800
001E00
000780
000180
ENDCHAR

STARTCHAR equal
ENCODING 61
SWIDTH 660 0
DWIDTH 21 0
BBX 16 7 2 5
BITMAP
FFFF
FFFF
0000
0000
0000
FFFF
FFFF
ENDCHAR

STARTCHAR greater
ENCODING 62
SWIDTH 660 0
DWIDTH 21 0
BBX 17 18 1 -1
BITMAP
C00000
F00000
3C0000
0F0000
03C000
00F000
003C00
000F00
000380
000380
000F00
003C00
00F000
03C000
0F0000
3C0000
F00000
C00000
ENDCHAR

STARTCHAR question
ENCODING 63
SWIDTH 460 0
DWIDTH 14 0
BBX 12 25 1 -1
BITMAP
1F80
71E0
C0E0
F070
F070
6070
0070
0070
0070
00E0
00E0
03C0
0F00
0C00
0C00
0C00
0800
0800
0000
0000
0000
0C00
1E00
1E00
0C00
ENDCHAR

STARTCHAR at
ENCODING 64
SWIDTH 820 0
DWIDTH 26 0
BBX 22 24 1 0
BITMAP
00FE00
07FFC0
0F01E0
1C0070
380018
303CD8
6067CC
60C38C
C1C38C
C1830C
C3030C
C3070C
C7060C
C6060C
C60E18
C60C18
661C30
633CE4
31E78C
380018
1C0070
0F03E0
07FF80
00FC00
ENDCHAR

STARTCHAR A
ENCODING 65
SWIDTH 720 0
DWIDTH 23 0
BBX 22 24 0 0
BITMAP
002000
003000
007800
007800
00DC00
009C00
018E00
018E00
030600
030700
060700
060380
040380
0C0180
0FFFC0
0FFFC0
1801C0
1800E0
3000E0
3000E0
300070
700070
700078
F800FC
ENDCHAR

STARTCHAR B
ENCODING 66
SWIDTH 680 0
DWIDTH 22 0
BBX 19 24 1 0
BITMAP
FFF800
7FFE00
380F00
380780
380380
380380
380380
380380
380700
380E00
38F800
3FFC00
3F0F00
380380
3801C0
3801C0
3800E0
3800E0
3800E0
3800E0
3801C0
3803C0
7FFF80
FFFE00
ENDCHAR

STARTCHAR C
ENCODING 67
SWIDTH 720 0
DWIDTH 23 0
BBX 20 24 1 0
BITMAP
00FE00
03FF80
0F83E0
0E00F0
3C0070
380030
700030
700000
E00000
E00000
E00000
E00000
E00000
E00000
E00000
E00000
E00000
700000
700030
380070
3C00E0
1F03C0
07FF00
01FC00
ENDCHAR

STARTCHAR D
ENCODING 68
SWIDTH 740 0
DWIDTH 23 0
BBX 21 24 1 0
BITMAP
FFF800
7FFE00
380F80
3803C0
3801E0
3800E0
380070
380070
380038
380038
380038
380038
380038
380038
380038
380038
380070
380070
3800E0
3801E0
3803C0
380F80
7FFE00
FFF800
ENDCHAR

STARTCHAR E
ENCODING 69
SWIDTH 600 0
DWIDTH 19 0
BBX 17 24 1 0
BITMAP
FFFE00
7FFF00
380300
380100
380000
380000
380000
380000
380000
380400
3FFC00
3FFC00
380400
380000
380000
380000
380000
380000
380000
380000
380080
380180
7FFF80
FFFF80
ENDCHAR

STARTCHAR F
ENCODING 70
SWIDTH 560 0
DWIDTH 18 0
BBX 16 24 1 0
BITMAP
FFFF
7FFF
3803
3801
3800
3800
3800
3800
3800
3800
3804
3FFC
3FFC
3804
3800
3800
3800
3800
3800
3800
3800
3800
7C00
FE00
ENDCHAR

STARTCHAR G
ENCODING 71
SWIDTH 760 0
DWIDTH 24 0
BBX 21 24 1 0
BITMAP
01FF00
07FFC0
0F01E0
1C0070
380030
380030
700010
700000
E00000
E00000
E00000
E00000
E007F8
E003F8
E00038
E00038
E00038
700038
700038
380038
3C0038
1F00F0
0FFFC0
03FF00
ENDCHAR

STARTCHAR H
ENCODING 72
SWIDTH 800 0
DWIDTH 25 0
BBX 23 24 1 0
BITMAP
FE00FE
7C007C
380038
380038
380038
380038
380038
380038
380038
380038
3FFFF8
3FFFF8
380038
380038
380038
380038
380038
380038
380038
380038
380038
380038
7C007C
FE00FE
ENDCHAR

STARTCHAR I
ENCODING 73
SWIDTH 260 0
DWIDTH 8 0
BBX 7 24 0 0
BITMAP
FE
7C
38
38
38
38
38
38
38
38
38
38
38
38
38
38
38
38
38
38
38
38
7C
FE
ENDCHAR

STARTCHAR J
ENCODING 74
SWIDTH 480 0
DWIDTH 15 0
BBX 14 24 0 0
BITMAP
01FC
00F8
0070
0070
0070
0070
0070
0070
0070
0070
0070
0070
0070
0070
0070
3070
7070
E070
E070
E070
6060
70E0
3FC0
0F00
ENDCHAR

STARTCHAR K
ENCODING 75
SWIDTH 700 0
DWIDTH 22 0
BBX 21 24 1 0
BITMAP
FE07F0
7C03C0
380380
380700
380E00
381C00
381800
383000
387000
38E000
39E000
3BF000
3F7800
3E3C00
3C1E00
380E00
380700
380780
380380
3801C0
3801C0
3800E0
7C00F0
FE01F8
ENDCHAR

STARTCHAR L
ENCODING 76
SWIDTH 600 0
DWIDTH 19 0
BBX 17 24 1 0
BITMAP
FE0000
7C0000
380000
380000
380000
380000
380000
380000
380000
380000
380000
380000
380000
380000
380000
380000
380000
380000
380000
380000
380080
380180
7FFF80
FFFF80
ENDCHAR

STARTCHAR M
ENCODING 77
SWIDTH 860 0
DWIDTH 27 0
BBX 24 24 1 0
BITMAP
FC003F
7C003E
3C003C
3E007C
36007C
37005C
3700DC
33009C
33819C
33819C
31811C
31C31C
30C31C
30E61C
30E61C
306C1C
307C1C
30381C
30381C
30381C
30101C
30001C
78003E
FC007F
ENDCHAR

STARTCHAR N
ENCODING 78
SWIDTH 740 0
DWIDTH 23 0
BBX 21 24 1 0
BITMAP
F801F8
7C00F0
3E0060
3F0060
370060
338060
31C060
30E060
30E060
307060
303860
303860
301C60
300E60
300E60
300760
300760
3003E0
3001E0
3001E0
3000E0
300060
780060
FC0020
ENDCHAR

STARTCHAR O
ENCODING 79
SWIDTH 800 0
DWIDTH 25 0
BBX 22 24 1 0
BITMAP
00FC00
03FF00
0F87C0
1C00E0
380070
380070
700038
700038
E0001C
E0001C
E0001C
E0001C
E0001C
E0001C
E0001C
E0001C
700038
700038
380070
380070
1C00E0
0F87C0
03FF00
00FC00
ENDCHAR

STARTCHAR P
ENCODING 80
SWIDTH 620 0
DWIDTH 20 0
BBX 17 24 1 0
BITMAP
FFF000
7FFC00
381F00
380700
380380
380380
380380
380380
380380
380700
380700
380E00
383C00
3FF000
3FC000
380000
380000
380000
380000
380000
380000
380000
7C0000
FE0000
ENDCHAR

STARTCHAR Q
ENCODING 81
SWIDTH 800 0
DWIDTH 25 0
BBX 22 28 1 -4
BITMAP
00FC00
03FF00
0F03C0
1C00E0
380070
380070
700038
700038
E0001C
E0001C
E0001C
E0001C
E0001C
E0001C
E0001C
E0001C
700038
700038
381070
381070
1C18E0
0F1BC0
07FF00
01FE00
000700
0003F8
0000FC
000038
ENDCHAR

STARTCHAR R
ENCODING 82
SWIDTH 680 0
DWIDTH 22 0
BBX 19 24 1 0
BITMAP
FFF800
7FFE00
380F00
380700
380380
380380
380380
380380
380700
380700
381E00
38F800
3FF000
3F7800
383C00
381C00
380E00
380F00
380700
380780
380380
3803C0
7C03C0
FE07E0
ENDCHAR

STARTCHAR S
ENCODING 83
SWIDTH 600 0
DWIDTH 19 0
BBX 17 24 0 0
BITMAP
03F000
0FFC00
1C1E00
380600
300200
700000
700000
700000
380000
3E0000
1FE000
0FFC00
00FE00
001F00
000780
000380
000380
400380
E00380
E00700
700700
3C1E00
1FFC00
07E000
ENDCHAR

STARTCHAR T
ENCODING 84
SWIDTH 640 0
DWIDTH 20 0
BBX 19 24 0 0
BITMAP
7FFFC0
7FFFC0
E0E0E0
80E020
00E000
00E000
00E000
00E000
00E000
00E000
00E000
00E000
00E000
00E000
00E000
00E000
00E000
00E000
00E000
00E000
00E000
00E000
01F000
03F800
ENDCHAR

STARTCHAR U
ENCODING 85
SWIDTH 760 0
DWIDTH 24 0
BBX 23 24 0 0
BITMAP
FE007E
7C003C
380018
380018
380018
380018
380018
380018
380018
380018
380018
380018
380018
380018
380018
380018
380018
380038
1C0030
1C0070
0F00E0
07C3C0
03FF80
00FE00
ENDCHAR

STARTCHAR V
ENCODING 86
SWIDTH 700 0
DWIDTH 22 0
BBX 21 25 0 -1
BITMAP
FC01F8
7800F0
700070
700060
380060
380060
3800C0
3800C0
1C00C0
1C0180
1C0180
0C0180
0E0180
0E0300
070300
070300
070600
038600
038C00
01CC00
01D800
00F800
00F000
007000
006000
ENDCHAR

STARTCHAR W
ENCODING 87
SWIDTH 940 0
DWIDTH 30 0
BBX 28 25 0 -1
BITMAP
FC1F81F0
780F00E0
70060060
70060060
38060060
380F00E0
380F00C0
380F00C0
381F00C0
181B80C0
1C1B81C0
1C1B8180
1C19C180
1C31C180
0E31C380
0E30E300
0E30E300
0660E300
06607600
07607600
07C03E00
03C03C00
03801C00
01801800
01000800
ENDCHAR

STARTCHAR X
ENCODING 88
SWIDTH 700 0
DWIDTH 22 0
BBX 21 24 0 0
BITMAP
FC03F0
7801E0
3801C0
3C0180
1C0380
0E0300
0F0600
078600
038C00
01D800
01F000
00F000
007800
00FC00
019C00
018E00
030700
060780
060380
0C01C0
1C01E0
3800E0
7800F0
FC01F8
ENDCHAR

STARTCHAR Y
ENCODING 89
SWIDTH 700 0
DWIDTH 22 0
BBX 21 24 0 0
BITMAP
FC00F8
780070
380060
3C0060
1C00C0
0C00C0
0E0180
070180
070300
038600
01C600
01CC00
00F800
007000
007000
007000
007000
007000
007000
007000
007000
007000
00F800
01FC00
ENDCHAR

STARTCHAR Z
ENCODING 90
SWIDTH 580 0
DWIDTH 18 0
BBX 16 24 1 0
BITMAP
7FFE
7FFE
600E
400E
001C
0038
0038
0070
00F0
00E0
01C0
0380
0380
0700
0F00
0E00
1C00
3800
3800
7001
7003
E00E
FFFE
FFFE
ENDCHAR

STARTCHAR bracketleft
ENCODING 91
SWIDTH 240 0
DWIDTH 8 0
BBX 4 29 2 -5
BITMAP
F0
E0
C0
C0
C0
C0
C0
C0
C0
C0
C0
C0
C0
C0
C0
C0
C0
C0
C0
C0
C0
C0
C0
C0
C0
C0
C0
E0
F0
ENDCHAR

STARTCHAR backslash
ENCODING 92
SWIDTH 600 0
DWIDTH 19 0
BBX 11 24 3 0
BITMAP
C000
C000
6000
6000
3000
3000
3000
1800
1800
0C00
0C00
0C00
0600
0600
0200
0300
0300
0180
0180
0180
00C0
00C0
0060
0060
ENDCHAR

STARTCHAR bracketright
ENCODING 93
SWIDTH 240 0
DWIDTH 8 0
BBX 4 29 1 -5
BITMAP
F0
70
30
30
30
30
30
30
30
30
30
30
30
30
30
30
30
30
30
30
30
30
30
30
30
30
30
70
F0
ENDCHAR

STARTCHAR asciicircum
ENCODING 94
SWIDTH 660 0
DWIDTH 21 0
BBX 14 15 3 9
BITMAP
0300
0300
0780
0780
0CC0
0CC0
1860
1860
3030
3030
3030
6018
6018
C00C
C00C
ENDCHAR

STARTCHAR underscore
ENCODING 95
SWIDTH 500 0
DWIDTH 16 0
BBX 16 2 0 -4
BITMAP
FFFF
FFFF
ENDCHAR

STARTCHAR quoteleft
ENCODING 96
SWIDTH 280 0
DWIDTH 9 0
BBX 4 8 3 16
BITMAP
20
40
40
80
E0
F0
F0
60
ENDCHAR

STARTCHAR a
ENCODING 97
SWIDTH 500 0
DWIDTH 16 0
BBX 14 15 1 0
BITMAP
1F00
7FC0
60E0
0060
0070
0FF0
3FF0
7070
6070
E070
E070
E070
70F0
7FF8
1F3C
ENDCHAR

STARTCHAR b
ENCODING 98
SWIDTH 520 0
DWIDTH 16 0
BBX 15 24 -1 0
BITMAP
3800
F800
7800
3800
3800
3800
3800
3800
3800
38E0
3BF8
3F3C
3C1C
381E
380E
380E
380E
380E
380E
381C
381C
3C38
1FF0
07C0
ENDCHAR

STARTCHAR c
ENCODING 99
SWIDTH 460 0
DWIDTH 15 0
BBX 12 15 1 0
BITMAP
0780
1FE0
3870
7030
7000
E000
E000
E000
E000
E000
E000
7030
7870
3FE0
0F80
ENDCHAR

STARTCHAR d
ENCODING 100
SWIDTH 520 0
DWIDTH 16 0
BBX 15 24 1 0
BITMAP
0038
00F8
0038
0038
0038
0038
0038
0038
0038
07B8
1FF8
3878
7038
6038
E038
E038
E038
E038
E038
E038
7038
7878
3FDC
0F9E
ENDCHAR

STARTCHAR e
ENCODING 101
SWIDTH 500 0
DWIDTH 16 0
BBX 13 15 1 0
BITMAP
07C0
1FF0
3878
7038
6038
E038
E0F0
FFE0
FF00
E000
E000
6018
7038
3FF0
0FC0
ENDCHAR

STARTCHAR f
ENCODING 102
SWIDTH 300 0
DWIDTH 9 0
BBX 9 25 1 0
BITMAP
0F00
1F80
1900
3800
3800
3800
3800
3800
3800
3800
FF00
FF00
3800
3800
3800
3800
3800
3800
3800
3800
3800
3800
3800
7C00
FE00
ENDCHAR

STARTCHAR g
ENCODING 103
SWIDTH 520 0
DWIDTH 16 0
BBX 14 22 1 -7
BITMAP
07FC
1FFC
38E0
7070
6030
E038
E038
E038
E038
E030
7070
78E0
3FE0
0FF0
0038
0018
001C
601C
E01C
F038
7FF8
1FE0
ENDCHAR

STARTCHAR h
ENCODING 104
SWIDTH 560 0
DWIDTH 18 0
BBX 17 24 0 0
BITMAP
380000
F80000
780000
380000
380000
380000
380000
380000
380000
38F000
3BFC00
3F1C00
3C0E00
380E00
380E00
380E00
380E00
380E00
380E00
380E00
380E00
380E00
780F00
FC1F80
ENDCHAR

STARTCHAR i
ENCODING 105
SWIDTH 240 0
DWIDTH 8 0
BBX 7 21 0 0
BITMAP
38
38
38
00
00
00
38
F8
78
38
38
38
38
38
38
38
38
38
38
7C
FE
ENDCHAR

STARTCHAR j
ENCODING 106
SWIDTH 220 0
DWIDTH 7 0
BBX 6 28 -1 -7
BITMAP
1C
1C
1C
00
00
00
0C
7C
3C
1C
1C
1C
1C
1C
1C
1C
1C
1C
1C
1C
1C
1C
1C
1C
18
F8
F0
60
ENDCHAR

STARTCHAR k
ENCODING 107
SWIDTH 500 0
DWIDTH 16 0
BBX 16 24 0 0
BITMAP
3800
F800
7800
3800
3800
3800
3800
3800
3800
387C
3838
3860
38C0
3980
3B00
3F80
3FC0
39E0
38F0
3878
3838
381C
7C1E
FE3F
ENDCHAR

STARTCHAR l
ENCODING 108
SWIDTH 220 0
DWIDTH 7 0
BBX 7 24 0 0
BITMAP
18
F8
78
38
38
38
38
38
38
38
38
38
38
38
38
38
38
38
38
38
38
38
7C
FE
ENDCHAR

STARTCHAR m
ENCODING 109
SWIDTH 840 0
DWIDTH 26 0
BBX 25 15 0 0
BITMAP
21E0F000
77F3FC00
FE3F1C00
3C1E0E00
381C0E00
381C0E00
381C0E00
381C0E00
381C0E00
381C0E00
381C0E00
381C0E00
381C0E00
7C3E1F00
FE7F3F80
ENDCHAR

STARTCHAR n
ENCODING 110
SWIDTH 560 0
DWIDTH 18 0
BBX 17 15 0 0
BITMAP
21F000
73FC00
FF1C00
3C0E00
380E00
380E00
380E00
380E00
380E00
380E00
380E00
380E00
380E00
7C1F00
FE3F80
ENDCHAR

STARTCHAR o
ENCODING 111
SWIDTH 560 0
DWIDTH 18 0
BBX 15 15 1 0
BITMAP
07C0
1FF0
3C78
701C
701C
E00E
E00E
E00E
E00E
E00E
701C
701C
3878
1FF0
07C0
ENDCHAR

STARTCHAR p
ENCODING 112
SWIDTH 580 0
DWIDTH 18 0
BBX 15 21 1 -6
BITMAP
61E0
F7F8
7E3C
3C1C
381E
380E
380E
380E
380E
381E
381C
383C
3878
3BF0
39C0
3800
3800
3800
3800
7C00
FE00
ENDCHAR

STARTCHAR q
ENCODING 113
SWIDTH 520 0
DWIDTH 16 0
BBX 15 21 1 -6
BITMAP
0788
1FF8
3878
7038
7038
E038
E038
E038
E038
E038
E038
7038
7078
3FF8
0F38
0038
0038
0038
0038
007C
00FE
ENDCHAR

STARTCHAR r
ENCODING 114
SWIDTH 360 0
DWIDTH 11 0
BBX 10 15 1 0
BITMAP
2380
77C0
FDC0
3980
3800
3800
3800
3800
3800
3800
3800
3800
3800
7C00
FE00
ENDCHAR

STARTCHAR s
ENCODING 115
SWIDTH 400 0
DWIDTH 13 0
BBX 10 15 1 0
BITMAP
3F00
7F80
E180
C080
C000
F000
7E00
3F80
0F80
01C0
00C0
C0C0
E1C0
7F80
3F00
ENDCHAR

STARTCHAR t
ENCODING 116
SWIDTH 300 0
DWIDTH 9 0
BBX 8 21 0 0
BITMAP
08
08
18
18
38
38
FF
FF
38
38
38
38
38
38
38
38
38
38
38
3E
3E
ENDCHAR

STARTCHAR u
ENCODING 117
SWIDTH 520 0
DWIDTH 16 0
BBX 16 15 0 0
BITMAP
381C
F87C
381C
381C
381C
381C
381C
381C
381C
381C
381C
383C
1C7C
1FEE
078F
ENDCHAR

STARTCHAR v
ENCODING 118
SWIDTH 460 0
DWIDTH 15 0
BBX 14 15 0 0
BITMAP
F83C
7018
7018
7818
3830
3830
3830
1C60
1C60
1C60
0EC0
0EC0
0780
0380
0300
ENDCHAR

STARTCHAR w
ENCODING 119
SWIDTH 720 0
DWIDTH 23 0
BBX 22 15 0 0
BITMAP
F87C3C
703818
703818
703818
707C30
387C30
386C30
38CC60
38CE60
1CCE60
1D8EC0
0D86C0
0F0780
070380
060300
ENDCHAR

STARTCHAR x
ENCODING 120
SWIDTH 500 0
DWIDTH 16 0
BBX 15 15 0 0
BITMAP
FC3E
781C
3C38
1C30
0E60
0EC0
0780
0380
07C0
06E0
0CF0
1878
3038
703C
F87E
ENDCHAR

STARTCHAR y
ENCODING 121
SWIDTH 480 0
DWIDTH 15 0
BBX 15 21 0 -6
BITMAP
F81E
700C
700C
700C
700C
381C
3818
3818
1C18
1C18
1C30
0E70
0FF0
07A0
0060
00C0
00C0
0180
4700
7E00
7800
ENDCHAR

STARTCHAR z
ENCODING 122
SWIDTH 420 0
DWIDTH 13 0
BBX 11 15 1 0
BITMAP
7FE0
7FE0
40E0
01C0
0380
0780
0700
0E00
1C00
3800
7000
7020
E060
FFC0
FFC0
ENDCHAR

STARTCHAR braceleft
ENCODING 123
SWIDTH 300 0
DWIDTH 10 0
BBX 8 30 1 -5
BITMAP
03
0E
0C
1C
18
18
18
18
18
18
18
18
18
30
E0
30
30
18
18
18
18
18
18
18
18
18
1C
0C
0E
03
ENDCHAR

STARTCHAR bar
ENCODING 124
SWIDTH 660 0
DWIDTH 21 0
BBX 2 24 9 0
BITMAP
C0
C0
C0
C0
C0
C0
C0
C0
C0
C0
C0
C0
C0
C0
C0
C0
C0
C0
C0
C0
C0
C0
C0
C0
ENDCHAR

STARTCHAR braceright
ENCODING 125
SWIDTH 300 0
DWIDTH 10 0
BBX 8 30 1 -5
BITMAP
C0
70
30
38
18
18
18
18
18
18
18
18
18
0C
07
0C
0C
18
18
18
18
18
18
18
18
18
38
30
70
C0
ENDCHAR

STARTCHAR asciitilde
ENCODING 126
SWIDTH 660 0
DWIDTH 21 0
BBX 16 4 3 7
BITMAP
1E02
7F8F
F3FE
40F8
ENDCHAR

STARTCHAR space
ENCODING 160
SWIDTH 300 0
DWIDTH 10 0
BBX 1 1 0 0
BITMAP
00
ENDCHAR

STARTCHAR exclamdown
ENCODING 161
SWIDTH 300 0
DWIDTH 10 0
BBX 4 21 3 -6
BITMAP
60
F0
F0
60
00
00
40
40
40
40
40
E0
E0
E0
E0
E0
E0
E0
E0
E0
E0
ENDCHAR

STARTCHAR cent
ENCODING 162
SWIDTH 600 0
DWIDTH 19 0
BBX 13 25 3 0
BITMAP
0100
0100
0100
0100
07C0
1FF0
3978
7138
7110
E100
E100
E100
E100
E100
E100
E100
7108
7118
3970
1FE0
0780
0100
0100
0100
0100
ENDCHAR

STARTCHAR sterling
ENCODING 163
SWIDTH 600 0
DWIDTH 19 0
BBX 14 24 2 0
BITMAP
03C0
0FE0
1C30
3818
3818
7008
7000
7000
7000
3000
3800
3800
FF80
FF80
1800
1800
1800
1800
3000
3000
3004
678C
FFF8
F1F0
ENDCHAR

STARTCHAR currency
ENCODING 164
SWIDTH 600 0
DWIDTH 19 0
BBX 17 18 1 3
BITMAP
400100
E7E380
7FFF00
3C3E00
700E00
600600
E00700
C00300
C00300
C00300
C00300
E00700
600600
700E00
3C3C00
7FFE00
E7E700
400200
ENDCHAR

STARTCHAR yen
ENCODING 165
SWIDTH 600 0
DWIDTH 19 0
BBX 18 24 0 0
BITMAP
F807C0
700380
700300
300300
380600
180600
1C0C00
0C0C00
0E1800
063000
073000
036000
1FFE00
1FFE00
01C000
1FFE00
1FFE00
01C000
01C000
01C000
01C000
01C000
03E000
07F000
ENDCHAR

STARTCHAR brokenbar
ENCODING 166
SWIDTH 660 0
DWIDTH 21 0
BBX 2 24 9 0
BITMAP
C0
C0
C0
C0
C0
C0
C0
C0
C0
00
00
00
00
00
00
C0
C0
C0
C0
C0
C0
C0
C0
C0
ENDCHAR

STARTCHAR section
ENCODING 167
SWIDTH 520 0
DWIDTH 17 0
BBX 14 31 1 -7
BITMAP
0780
1FE0
3870
3038
7018
6008
6000
7000
3C00
3F00
3FC0
63F0
C0F8
C03C
C01C
E00C
F00C
7C18
3F30
0FE0
03F0
0070
0038
0018
4018
4018
6018
6030
7070
3FE0
0F80
ENDCHAR

STARTCHAR dieresis
ENCODING 168
SWIDTH 460 0
DWIDTH 15 0
BBX 9 4 2 16
BITMAP
4100
E380
E380
4100
ENDCHAR

STARTCHAR copyright
ENCODING 169
SWIDTH 840 0
DWIDTH 27 0
BBX 22 24 2 0
BITMAP
01FE00
070380
0C00C0
180060
307830
21FE10
638718
430308
470108
C6000C
860004
860004
860004
860004
C6000C
470108
430308
638718
21FE10
307830
180060
0C00C0
070380
01FE00
ENDCHAR

STARTCHAR ordfeminine
ENCODING 170
SWIDTH 400 0
DWIDTH 13 0
BBX 10 14 1 10
BITMAP
1E00
7300
0180
0180
1F80
7180
C180
C180
E780
7DC0
0000
0000
0000
FFC0
ENDCHAR

STARTCHAR guillemotleft
ENCODING 171
SWIDTH 340 0
DWIDTH 11 0
BBX 9 11 0 4
BITMAP
0880
1980
1100
3300
6600
EE00
6600
3300
1100
1980
0880
ENDCHAR

STARTCHAR logicalnot
ENCODING 172
SWIDTH 660 0
DWIDTH 21 0
BBX 16 10 2 2
BITMAP
FFFF
FFFF
0003
0003
0003
0003
0003
0003
0003
0003
ENDCHAR

STARTCHAR hyphen
ENCODING 173
SWIDTH 300 0
DWIDTH 10 0
BBX 8 2 1 8
BITMAP
FF
FF
ENDCHAR

STARTCHAR registered
ENCODING 174
SWIDTH 800 0
DWIDTH 26 0
BBX 22 24 1 0
BITMAP
01FE00
070380
0C00C0
180060
37FC30
23FE10
630718
430308
43030C
C30704
830E04
83FC04
83FC04
830C04
C3060C
430608
430308
630318
278790
300030
180060
0C00C0
070380
01FE00
ENDCHAR

STARTCHAR macron
ENCODING 175
SWIDTH 380 0
DWIDTH 12 0
BBX 7 2 2 17
BITMAP
FE
FE
ENDCHAR

STARTCHAR degree
ENCODING 176
SWIDTH 400 0
DWIDTH 13 0
BBX 8 9 2 15
BITMAP
3C
66
C3
81
81
81
C3
66
3C
ENDCHAR

STARTCHAR plusminus
ENCODING 177
SWIDTH 660 0
DWIDTH 21 0
BBX 16 16 2 0
BITMAP
0180
0180
0180
0180
0180
FFFF
FFFF
0180
0180
0180
0180
0180
0000
0000
FFFF
FFFF
ENDCHAR

STARTCHAR twosuperior
ENCODING 178
SWIDTH 360 0
DWIDTH 12 0
BBX 9 14 1 10
BITMAP
1C00
7F00
6380
C180
C180
0300
0300
0600
0C00
1800
3000
6080
FF80
FF00
ENDCHAR

STARTCHAR threesuperior
ENCODING 179
SWIDTH 360 0
DWIDTH 12 0
BBX 9 14 1 10
BITMAP
1C00
7F00
E380
C180
0180
0700
1E00
0700
0180
0180
C180
E380
7F00
1C00
ENDCHAR

STARTCHAR acute
ENCODING 180
SWIDTH 320 0
DWIDTH 10 0
BBX 5 5 2 16
BITMAP
38
70
60
C0
80
ENDCHAR

STARTCHAR mu
ENCODING 181
SWIDTH 520 0
DWIDTH 17 0
BBX 16 21 0 -6
BITMAP
381C
F87C
381C
381C
381C
381C
381C
381C
381C
381C
381C
381C
3C3C
3FFE
3BCF
3800
3800
3800
3800
3800
3800
ENDCHAR

STARTCHAR paragraph
ENCODING 182
SWIDTH 720 0
DWIDTH 23 0
BBX 20 30 1 -6
BITMAP
07FFF0
1FFFF0
383180
703180
603180
E03180
E03180
E03180
E03180
603180
703180
303180
3C3180
0E3180
07F180
01F180
003180
003180
003180
003180
003180
003180
003180
003180
003180
003180
003180
003180
003180
003180
ENDCHAR

STARTCHAR periodcentered
ENCODING 183
SWIDTH 300 0
DWIDTH 10 0
BBX 3 3 3 7
BITMAP
E0
E0
E0
ENDCHAR

STARTCHAR cedilla
ENCODING 184
SWIDTH 300 0
DWIDTH 10 0
BBX 5 7 2 -7
BITMAP
20
20
70
18
08
98
70
ENDCHAR

STARTCHAR onesuperior
ENCODING 185
SWIDTH 360 0
DWIDTH 12 0
BBX 8 14 2 10
BITMAP
08
F8
38
18
18
18
18
18
18
18
18
18
3C
FF
ENDCHAR

STARTCHAR ordmasculine
ENCODING 186
SWIDTH 400 0
DWIDTH 13 0
BBX 10 14 1 10
BITMAP
1E00
7380
6180
E1C0
C0C0
C0C0
E1C0
6180
7380
1E00
0000
0000
0000
FFC0
ENDCHAR

STARTCHAR guillemotright
ENCODING 187
SWIDTH 340 0
DWIDTH 11 0
BBX 9 11 1 4
BITMAP
8800
CC00
4400
6600
3300
3B80
3300
6600
4400
CC00
8800
ENDCHAR

STARTCHAR onequarter
ENCODING 188
SWIDTH 900 0
DWIDTH 29 0
BBX 26 24 1 0
BITMAP
08003000
F8003000
38006000
18006000
1800C000
1800C000
18018000
18018000
18030000
18020300
18060700
180C0F00
3C0C1B00
FF183300
00182300
00306300
0030C300
00608300
00C18300
00C1FFC0
01800300
01800300
03000780
03000FC0
ENDCHAR

STARTCHAR onehalf
ENCODING 189
SWIDTH 900 0
DWIDTH 29 0
BBX 27 24 0 0
BITMAP
08003000
F8003000
38006000
18006000
1800C000
1800C000
18018000
18018000
18030000
18060000
18060F00
180C3F80
3C0C31C0
FF1860C0
001860C0
00300180
00600380
00600300
00C00600
00C00C00
01801800
01803020
03007FE0
03007FC0
ENDCHAR

STARTCHAR threequarters
ENCODING 190
SWIDTH 900 0
DWIDTH 29 0
BBX 25 24 2 0
BITMAP
1C001800
7F001800
E3803000
C1806000
01806000
0700C000
1E018000
07018000
01830000
01860600
C1860E00
E38C1E00
7F183600
1C186600
00304600
0030C600
00618600
00C10600
00C30600
0183FF80
03000600
03000600
06000F00
06001F80
ENDCHAR

STARTCHAR questiondown
ENCODING 191
SWIDTH 460 0
DWIDTH 14 0
BBX 10 21 2 -6
BITMAP
0300
0780
0780
0300
0000
0000
0200
0200
0200
0600
1E00
3800
7000
6000
C000
C000
C040
C0C0
E0C0
7180
1F00
ENDCHAR

STARTCHAR Agrave
ENCODING 192
SWIDTH 720 0
DWIDTH 23 0
BBX 22 30 0 0
BITMAP
01C000
00E000
006000
003000
001000
000000
002000
003000
007800
007800
00DC00
009C00
018E00
018E00
030600
030700
060700
060380
040380
0C0180
0FFFC0
0FFFC0
1801C0
1800E0
1800E0
3000E0
300070
700070
700078
F800FC
ENDCHAR

STARTCHAR Aacute
ENCODING 193
SWIDTH 720 0
DWIDTH 23 0
BBX 22 30 0 0
BITMAP
000E00
001C00
001800
003000
002000
000000
002000
003000
007800
007800
00DC00
009C00
018E00
018E00
030600
030700
060700
060380
040380
0C0180
0FFFC0
0FFFC0
1801C0
1800E0
1800E0
3000E0
300070
700070
700078
F800FC
ENDCHAR

STARTCHAR Acircumflex
ENCODING 194
SWIDTH 720 0
DWIDTH 23 0
BBX 22 30 0 0
BITMAP
002000
007000
00F800
018C00
030600
000000
002000
003000
007800
007800
00DC00
009C00
018E00
018E00
030600
030700
060700
060380
040380
0C0180
0FFFC0
0FFFC0
1801C0
1800E0
1800E0
3000E0
300070
700070
700078
F800FC
ENDCHAR

STARTCHAR Atilde
ENCODING 195
SWIDTH 720 0
DWIDTH 23 0
BBX 22 29 0 0
BITMAP
00E600
01FC00
033800
000000
000000
002000
003000
007800
007800
00DC00
009C00
018E00
018E00
030600
030700
060700
060380
040380
0C0180
0FFFC0
0FFFC0
1801C0
1800E0
1800E0
3000E0
300070
700070
700078
F800FC
ENDCHAR

STARTCHAR Adieresis
ENCODING 196
SWIDTH 720 0
DWIDTH 23 0
BBX 22 30 0 0
BITMAP
010400
038E00
038E00
010400
000000
000000
002000
003000
007800
007800
00DC00
009C00
018E00
018E00
030600
030700
060700
060380
040380
0C0180
0FFFC0
0FFFC0
1801C0
1800E0
1800E0
3000E0
300070
700070
700078
F800FC
ENDCHAR

STARTCHAR Aring
ENCODING 197
SWIDTH 720 0
DWIDTH 23 0
BBX 22 30 0 0
BITMAP
007800
00CC00
008400
00CC00
007800
000000
002000
003000
007800
007800
00DC00
009C00
018E00
018E00
030600
030700
060700
060380
040380
0C0180
0FFFC0
0FFFC0
1801C0
1800E0
1800E0
3000E0
3000F0
700070
700078
F800FC
ENDCHAR

STARTCHAR AE
ENCODING 198
SWIDTH 960 0
DWIDTH 31 0
BBX 28 24 0 0
BITMAP
000FFFC0
001FFFE0
001F0060
00370020
00670000
00670000
00C70000
00C70000
01870000
01870080
0307FF80
0307FF80
03070080
06070000
07FF0000
0FFF0000
0C070000
18070000
18070000
38070000
30070010
70070030
700FFFF0
F81FFFF0
ENDCHAR

STARTCHAR Ccedilla
ENCODING 199
SWIDTH 720 0
DWIDTH 23 0
BBX 20 31 1 -7
BITMAP
00FE00
03FF80
0F83E0
0E00F0
3C0070
380030
700030
700000
E00000
E00000
E00000
E00000
E00000
E00000
E00000
E00000
E00000
700000
700030
380070
3C00E0
1F03C0
07FF00
01FC00
002000
002000
007000
001800
000800
009800
007000
ENDCHAR

STARTCHAR Egrave
ENCODING 200
SWIDTH 600 0
DWIDTH 19 0
BBX 17 30 1 0
BITMAP
070000
038000
018000
00C000
004000
000000
FFFE00
7FFF00
380300
380100
380000
380000
380000
380000
380000
380400
3FFC00
3FFC00
380400
380000
380000
380000
380000
380000
380000
380000
380080
380180
7FFF80
FFFF80
ENDCHAR

STARTCHAR Eacute
ENCODING 201
SWIDTH 600 0
DWIDTH 19 0
BBX 17 30 1 0
BITMAP
007000
00E000
00C000
018000
010000
000000
FFFE00
7FFF00
380300
380100
380000
380000
380000
380000
380000
380400
3FFC00
3FFC00
380400
380000
380000
380000
380000
380000
380000
380000
380080
380180
7FFF80
FFFF80
ENDCHAR

STARTCHAR Ecircumflex
ENCODING 202
SWIDTH 600 0
DWIDTH 19 0
BBX 17 30 1 0
BITMAP
008000
01C000
03E000
063000
0C1800
000000
FFFE00
7FFF00
380300
380100
380000
380000
380000
380000
380000
380400
3FFC00
3FFC00
380400
380000
380000
380000
380000
380000
380000
380000
380080
380180
7FFF80
FFFF80
ENDCHAR

STARTCHAR Edieresis
ENCODING 203
SWIDTH 600 0
DWIDTH 19 0
BBX 17 30 1 0
BITMAP
041000
0E3800
0E3800
041000
000000
000000
FFFE00
7FFF00
380300
380100
380000
380000
380000
380000
380000
380400
3FFC00
3FFC00
380400
380000
380000
380000
380000
380000
380000
380000
380080
380180
7FFF80
FFFF80
ENDCHAR

STARTCHAR Igrave
ENCODING 204
SWIDTH 260 0
DWIDTH 8 0
BBX 7 30 0 0
BITMAP
E0
70
30
18
08
00
FE
7C
38
38
38
38
38
38
38
38
38
38
38
38
38
38
38
38
38
38
38
38
7C
FE
ENDCHAR

STARTCHAR Iacute
ENCODING 205
SWIDTH 260 0
DWIDTH 8 0
BBX 7 30 0 0
BITMAP
0E
1C
18
30
20
00
FE
7C
38
38
38
38
38
38
38
38
38
38
38
38
38
38
38
38
38
38
38
38
7C
FE
ENDCHAR

STARTCHAR Icircumflex
ENCODING 206
SWIDTH 260 0
DWIDTH 8 0
BBX 9 30 -1 0
BITMAP
0800
1C00
3E00
6300
C180
0000
7F00
3E00
1C00
1C00
1C00
1C00
1C00
1C00
1C00
1C00
1C00
1C00
1C00
1C00
1C00
1C00
1C00
1C00
1C00
1C00
1C00
1C00
3E00
7F00
ENDCHAR

STARTCHAR Idieresis
ENCODING 207
SWIDTH 260 0
DWIDTH 8 0
BBX 9 30 -1 0
BITMAP
4100
E380
E380
4100
0000
0000
7F00
3E00
1C00
1C00
1C00
1C00
1C00
1C00
1C00
1C00
1C00
1C00
1C00
1C00
1C00
1C00
1C00
1C00
1C00
1C00
1C00
1C00
3E00
7F00
ENDCHAR

STARTCHAR Eth
ENCODING 208
SWIDTH 740 0
DWIDTH 24 0
BBX 21 24 1 0
BITMAP
FFF000
7FFE00
380F00
3803C0
3801E0
3800E0
380070
380070
380030
380038
380038
FF8038
FF8038
380038
380038
380038
380070
380070
3800E0
3800E0
3803C0
380780
7FFE00
FFF800
ENDCHAR

STARTCHAR Ntilde
ENCODING 209
SWIDTH 740 0
DWIDTH 23 0
BBX 21 29 1 0
BITMAP
007300
00FE00
019C00
000000
000000
F801F8
7C00F0
3E0060
3F0060
370060
338060
31C060
30E060
30E060
307060
303860
303860
301C60
300E60
300E60
300760
300760
3003E0
3001E0
3001E0
3000E0
300060
780060
FC0020
ENDCHAR

STARTCHAR Ograve
ENCODING 210
SWIDTH 800 0
DWIDTH 25 0
BBX 22 30 1 0
BITMAP
00E000
007000
003000
001800
000800
000000
00FC00
03FF00
0F03C0
1C00E0
380070
380070
700038
70003C
E0001C
E0001C
E0001C
E0001C
E0001C
E0001C
E0001C
E0001C
700038
700038
380070
380070
1C00E0
0F03C0
03FF00
00FC00
ENDCHAR

STARTCHAR Oacute
ENCODING 211
SWIDTH 800 0
DWIDTH 25 0
BBX 22 30 1 0
BITMAP
000E00
001C00
001800
003000
002000
000000
00FC00
03FF00
0F03C0
1C00E0
380070
380070
700038
700038
E0001C
E0001C
E0001C
E0001C
E0001C
E0001C
E0001C
E0001C
700038
700038
380070
380070
1C00E0
0F03C0
03FF00
00FC00
ENDCHAR

STARTCHAR Ocircumflex
ENCODING 212
SWIDTH 800 0
DWIDTH 25 0
BBX 22 30 1 0
BITMAP
002000
007000
00F800
018C00
030600
000000
00FC00
03FF00
0F03C0
1C00E0
380070
380070
700038
700038
E0001C
E0001C
E0001C
E0001C
E0001C
E0001C
E0001C
E0001C
700038
700038
380070
380070
1C00E0
0F03C0
03FF00
00FC00
ENDCHAR

STARTCHAR Otilde
ENCODING 213
SWIDTH 800 0
DWIDTH 25 0
BBX 22 29 1 0
BITMAP
007300
00FE00
019C00
000000
000000
00FC00
03FF00
0F03C0
1C00E0
380070
380070
700038
700038
E0001C
E0001C
E0001C
E0001C
E0001C
E0001C
E0001C
E0001C
700038
700038
380070
380070
1C00E0
0F03C0
03FF00
00FC00
ENDCHAR

STARTCHAR Odieresis
ENCODING 214
SWIDTH 800 0
DWIDTH 25 0
BBX 22 30 1 0
BITMAP
008200
01C700
01C700
008200
000000
000000
00FC00
03FF00
0F03C0
1C00E0
380070
380070
700038
700038
E0001C
E0001C
E0001C
E0001C
E0001C
E0001C
E0001C
E0001C
700038
700038
380070
380070
1C00E0
0F03C0
03FF00
00FC00
ENDCHAR

STARTCHAR multiply
ENCODING 215
SWIDTH 660 0
DWIDTH 21 0
BBX 17 17 2 0
BITMAP
400100
E00380
700700
380E00
1C1C00
0E3800
077000
03E000
01C000
03E000
077000
0E3800
1C1C00
380E00
700700
E00380
400100
ENDCHAR

STARTCHAR Oslash
ENCODING 216
SWIDTH 800 0
DWIDTH 26 0
BBX 22 24 1 0
BITMAP
00FC04
03FF0C
0F03D8
1C00F0
380070
3800F0
7001B8
700338
E0061C
E00C1C
E0181C
E0301C
E0601C
E0C01C
E1801C
E3001C
760038
7C0038
380070
380070
7C00E0
CF03C0
83FF00
00FC00
ENDCHAR

STARTCHAR Ugrave
ENCODING 217
SWIDTH 760 0
DWIDTH 24 0
BBX 23 30 0 0
BITMAP
007000
003800
001800
000C00
000400
000000
FE007E
7C003C
380018
380018
380018
380018
380018
380018
380018
380018
380018
380018
380018
380018
380018
380018
380018
380038
1C0030
1C0070
0F00E0
07C3C0
03FF80
00FE00
ENDCHAR

STARTCHAR Uacute
ENCODING 218
SWIDTH 760 0
DWIDTH 24 0
BBX 23 30 0 0
BITMAP
000700
000E00
000C00
001800
001000
000000
FE007E
7C003C
380018
380018
380018
380018
380018
380018
380018
380018
380018
380018
380018
380018
380018
380018
380018
380038
1C0030
1C0070
0F00E0
07C3C0
03FF80
00FE00
ENDCHAR

STARTCHAR Ucircumflex
ENCODING 219
SWIDTH 760 0
DWIDTH 24 0
BBX 23 30 0 0
BITMAP
000800
001C00
003E00
006300
00C180
000000
FE007E
7C003C
380018
380018
380018
380018
380018
380018
380018
380018
380018
380018
380018
380018
380018
380018
380018
380038
1C0030
1C0070
0F00E0
07C3C0
03FF80
00FE00
ENDCHAR

STARTCHAR Udieresis
ENCODING 220
SWIDTH 760 0
DWIDTH 24 0
BBX 23 30 0 0
BITMAP
004100
00E380
00E380
004100
000000
000000
FE007E
7C003C
380018
380018
380018
380018
380018
380018
380018
380018
380018
380018
380018
380018
380018
380018
380018
380038
1C0030
1C0070
0F00E0
07C3C0
03FF80
00FE00
ENDCHAR

STARTCHAR Yacute
ENCODING 221
SWIDTH 700 0
DWIDTH 22 0
BBX 21 30 0 0
BITMAP
000E00
001C00
001800
003000
002000
000000
FC00F8
780070
380060
380060
1C00C0
1C00C0
0E0180
070180
070300
038600
01C600
01CC00
00F800
007000
007000
007000
007000
007000
007000
007000
007000
007000
00F800
01FC00
ENDCHAR

STARTCHAR Thorn
ENCODING 222
SWIDTH 620 0
DWIDTH 20 0
BBX 18 24 0 0
BITMAP
FE0000
7C0000
380000
380000
380000
380000
3FF800
3FFE00
380780
3803C0
3801C0
3801C0
3801C0
380380
380700
381E00
3FF800
3FE000
380000
380000
380000
380000
7C0000
FE0000
ENDCHAR

STARTCHAR germandbls
ENCODING 223
SWIDTH 520 0
DWIDTH 17 0
BBX 15 23 0 0
BITMAP
07C0
1C70
1830
3838
3838
3838
3830
3870
3860
38C0
39C0
39C0
39E0
38F0
3878
383C
381C
380E
380E
3906
398C
79FC
F870
ENDCHAR

STARTCHAR agrave
ENCODING 224
SWIDTH 500 0
DWIDTH 16 0
BBX 14 21 1 0
BITMAP
3800
1C00
0C00
0600
0200
0000
1F00
7FC0
60E0
0060
0070
0FF0
3FF0
7070
6070
E070
E070
E070
70F0
7FF8
1F3C
ENDCHAR

STARTCHAR aacute
ENCODING 225
SWIDTH 500 0
DWIDTH 16 0
BBX 14 21 1 0
BITMAP
00E0
01C0
0180
0300
0200
0000
1F00
7FC0
60E0
0060
0070
0FF0
3FF0
7070
6070
E070
E070
E070
70F0
7FF8
1F3C
ENDCHAR

STARTCHAR acircumflex
ENCODING 226
SWIDTH 500 0
DWIDTH 16 0
BBX 14 21 1 0
BITMAP
0200
0700
0F80
18C0
3060
0000
1F00
7FC0
60E0
0060
0070
0FF0
3FF0
7070
6070
E070
E070
E070
70F0
7FF8
1F3C
ENDCHAR

STARTCHAR atilde
ENCODING 227
SWIDTH 500 0
DWIDTH 16 0
BBX 14 20 1 0
BITMAP
0E60
1FC0
3380
0000
0000
1F00
7FC0
60E0
0060
0070
0FF0
3FF0
7070
6070
E070
E070
E070
70F0
7FF8
1F3C
ENDCHAR

STARTCHAR adieresis
ENCODING 228
SWIDTH 500 0
DWIDTH 16 0
BBX 14 21 1 0
BITMAP
1040
38E0
38E0
1040
0000
0000
1F00
7FC0
60E0
0060
0070
0FF0
3FF0
7070
6070
E070
E070
E070
70F0
7FF8
1F3C
ENDCHAR

STARTCHAR aring
ENCODING 229
SWIDTH 500 0
DWIDTH 16 0
BBX 14 21 1 0
BITMAP
0F00
1980
1080
1980
0F00
0000
1F00
7FC0
60E0
0060
0070
0FF0
3FF0
7070
6070
E070
E070
E070
70F0
7FF8
1F3C
ENDCHAR

STARTCHAR ae
ENCODING 230
SWIDTH 800 0
DWIDTH 26 0
BBX 23 15 1 0
BITMAP
1F81F0
7FE7FC
60FE1E
003C0E
00380E
03F81E
1FF83C
7C3FF0
703FC0
E03000
E03800
E07806
71DE1E
7F8FF8
1E03E0
ENDCHAR

STARTCHAR ccedilla
ENCODING 231
SWIDTH 460 0
DWIDTH 15 0
BBX 12 22 1 -7
BITMAP
0780
1FE0
3870
7030
7000
E000
E000
E000
E000
E000
E000
7030
7870
3FE0
0F80
0200
0200
0700
0180
0080
0980
0700
ENDCHAR

STARTCHAR egrave
ENCODING 232
SWIDTH 500 0
DWIDTH 16 0
BBX 13 21 1 0
BITMAP
0E00
0700
0300
0180
0080
0000
07C0
1FF0
3878
7038
6038
E038
E0F0
FFE0
FF00
E000
E000
6018
7038
3FF0
0FC0
ENDCHAR

STARTCHAR eacute
ENCODING 233
SWIDTH 500 0
DWIDTH 16 0
BBX 13 21 1 0
BITMAP
0070
00E0
00C0
0180
0100
0000
07C0
1FF0
3878
7038
6038
E038
E0F0
FFE0
FF00
E000
E000
6018
7038
3FF0
0FC0
ENDCHAR

STARTCHAR ecircumflex
ENCODING 234
SWIDTH 500 0
DWIDTH 16 0
BBX 13 21 1 0
BITMAP
0100
0380
07C0
0C60
1830
0000
07C0
1FF0
3878
7038
6038
E038
E0F0
FFE0
FF00
E000
E000
6018
7038
3FF0
0FC0
ENDCHAR

STARTCHAR edieresis
ENCODING 235
SWIDTH 500 0
DWIDTH 16 0
BBX 13 21 1 0
BITMAP
0820
1C70
1C70
0820
0000
0000
07C0
1FF0
3878
7038
6038
E038
E0F0
FFE0
FF00
E000
E000
6018
7038
3FF0
0FC0
ENDCHAR

STARTCHAR igrave
ENCODING 236
SWIDTH 240 0
DWIDTH 8 0
BBX 7 21 0 0
BITMAP
E0
70
30
18
08
00
38
F8
78
38
38
38
38
38
38
38
38
38
38
7C
FE
ENDCHAR

STARTCHAR iacute
ENCODING 237
SWIDTH 240 0
DWIDTH 8 0
BBX 7 21 0 0
BITMAP
0E
1C
18
30
20
00
38
F8
78
38
38
38
38
38
38
38
38
38
38
7C
FE
ENDCHAR

STARTCHAR icircumflex
ENCODING 238
SWIDTH 240 0
DWIDTH 8 0
BBX 9 21 -1 0
BITMAP
0800
1C00
3E00
6300
C180
0000
1C00
7C00
3C00
1C00
1C00
1C00
1C00
1C00
1C00
1C00
1C00
1C00
1C00
3E00
7F00
ENDCHAR

STARTCHAR idieresis
ENCODING 239
SWIDTH 240 0
DWIDTH 8 0
BBX 9 21 -1 0
BITMAP
4100
E380
E380
4100
0000
0000
1C00
7C00
3C00
1C00
1C00
1C00
1C00
1C00
1C00
1C00
1C00
1C00
1C00
3C00
7F00
ENDCHAR

STARTCHAR eth
ENCODING 240
SWIDTH 570 0
DWIDTH 18 0
BBX 16 24 0 0
BITMAP
F830
3E60
07C0
01C0
03E0
0670
0418
001C
000C
07C6
1FF6
383F
700F
6007
E007
E007
E007
E007
E007
700E
700E
381C
1FF8
07E0
ENDCHAR

STARTCHAR ntilde
ENCODING 241
SWIDTH 560 0
DWIDTH 18 0
BBX 17 20 0 0
BITMAP
01CC00
03F800
067000
000000
000000
21F000
73FC00
FF1C00
3C0E00
380E00
380E00
380E00
380E00
380E00
380E00
380E00
380E00
380E00
7C1F00
FE3F80
ENDCHAR

STARTCHAR ograve
ENCODING 242
SWIDTH 560 0
DWIDTH 18 0
BBX 15 21 1 0
BITMAP
0E00
0700
0300
0180
0080
0000
07C0
1FF0
3C78
701C
701C
E00E
E00E
E00E
E00E
E00E
701C
701C
3878
1FF0
07C0
ENDCHAR

STARTCHAR oacute
ENCODING 243
SWIDTH 560 0
DWIDTH 18 0
BBX 15 21 1 0
BITMAP
0070
00E0
00C0
0180
0100
0000
07C0
1FF0
3C78
701C
701C
E00E
E00E
E00E
E00E
E00E
701C
701C
3878
1FF0
07C0
ENDCHAR

STARTCHAR ocircumflex
ENCODING 244
SWIDTH 560 0
DWIDTH 18 0
BBX 15 21 1 0
BITMAP
0100
0380
07C0
0C60
1830
0000
07C0
1FF0
3C78
701C
701C
E00E
E00E
E00E
E00E
E00E
701C
701C
3878
1FF0
07C0
ENDCHAR

STARTCHAR otilde
ENCODING 245
SWIDTH 560 0
DWIDTH 18 0
BBX 15 20 1 0
BITMAP
0730
0FE0
19C0
0000
0000
07C0
1FF0
3C78
701C
701C
E00E
E00E
E00E
E00E
E00E
701C
701C
3878
1FF0
07C0
ENDCHAR

STARTCHAR odieresis
ENCODING 246
SWIDTH 560 0
DWIDTH 18 0
BBX 15 21 1 0
BITMAP
0820
1C70
1C70
0820
0000
0000
07C0
1FF0
3C78
701C
701C
E00E
E00E
E00E
E00E
E00E
701C
701C
3878
1FF0
07C0
ENDCHAR

STARTCHAR divide
ENCODING 247
SWIDTH 660 0
DWIDTH 21 0
BBX 15 14 3 2
BITMAP
0380
0380
0380
0000
0000
0000
FFFE
FFFE
0000
0000
0000
0380
0380
0380
ENDCHAR

STARTCHAR oslash
ENCODING 248
SWIDTH 560 0
DWIDTH 18 0
BBX 15 16 1 -1
BITMAP
07C2
1FF6
3C7C
7018
703C
E06E
E0CE
E18E
E30E
E60E
6C1C
781C
3C78
7FF0
C7C0
8000
ENDCHAR

STARTCHAR ugrave
ENCODING 249
SWIDTH 520 0
DWIDTH 16 0
BBX 16 21 0 0
BITMAP
0E00
0700
0300
0180
0080
0000
381C
F87C
381C
381C
381C
381C
381C
381C
381C
381C
381C
383C
1C7C
1FEE
078F
ENDCHAR

STARTCHAR uacute
ENCODING 250
SWIDTH 520 0
DWIDTH 16 0
BBX 16 21 0 0
BITMAP
0070
00E0
00C0
0180
0100
0000
381C
F87C
381C
381C
381C
381C
381C
381C
381C
381C
381C
383C
1C7C
1FEE
078F
ENDCHAR

STARTCHAR ucircumflex
ENCODING 251
SWIDTH 520 0
DWIDTH 16 0
BBX 16 21 0 0
BITMAP
0080
01C0
03E0
0630
0C18
0000
381C
F87C
381C
381C
381C
381C
381C
381C
381C
381C
381C
383C
1C7C
1FEE
078F
ENDCHAR

STARTCHAR udieresis
ENCODING 252
SWIDTH 520 0
DWIDTH 16 0
BBX 16 21 0 0
BITMAP
0820
1C70
1C70
0820
0000
0000
381C
F87C
381C
381C
381C
381C
381C
381C
381C
381C
381C
383C
1C7C
1FEE
078F
ENDCHAR

STARTCHAR yacute
ENCODING 253
SWIDTH 480 0
DWIDTH 15 0
BBX 15 27 0 -6
BITMAP
0070
00E0
00C0
0180
0100
0000
F81E
700C
700C
700C
700C
381C
3818
3818
1C18
1C18
1C30
0E70
0FF0
07A0
0060
00C0
00C0
0180
4700
7E00
7800
ENDCHAR

STARTCHAR thorn
ENCODING 254
SWIDTH 580 0
DWIDTH 19 0
BBX 15 28 1 -6
BITMAP
F800
7800
3800
3800
3800
3800
3800
39E0
3FF8
3C1C
381C
380E
380E
380E
380E
380E
380E
381C
381C
3838
3BF0
39C0
3800
3800
3800
3800
7C00
FE00
ENDCHAR

STARTCHAR ydieresis
ENCODING 255
SWIDTH 480 0
DWIDTH 15 0
BBX 15 27 0 -6
BITMAP
0410
0E38
0E38
0410
0000
0000
F81E
700C
700C
700C
700C
381C
3818
3818
1C18
1C18
1C30
0E70
0FF0
07A0
0060
00C0
00C0
0180
4700
7E00
7800
ENDCHAR
ENDFONT
